<svg width="120" height="24" viewBox="0 0 120 24" fill="none" xmlns="http://www.w3.org/2000/svg">
<path fill-rule="evenodd" clip-rule="evenodd" d="M19.7135 2.35176C20.3513 3.05528 20.8098 3.8392 21.1087 4.74372C21.4077 5.62814 21.5473 6.57286 21.5473 7.53769C21.5473 8.48241 21.4077 9.40703 21.1087 10.3116C20.8297 11.2161 20.3513 12.0201 19.7135 12.7236C19.0756 13.4271 18.2384 13.9899 17.2219 14.4121C16.2053 14.8342 14.9695 15.0553 13.5144 15.0553H8.13255V23.4975H3.00984V15.0754H0V11.0553H3.00984V4.0201H0V0H13.4944C14.9495 0 16.1854 0.221106 17.2219 0.663317C18.2384 1.08543 19.0756 1.64824 19.7135 2.35176ZM15.2286 10.392C15.6472 10.1508 15.9661 9.78895 16.2252 9.32663C16.4644 8.88442 16.604 8.28141 16.604 7.53769C16.604 6.79397 16.4844 6.19095 16.2252 5.72864C15.9661 5.26633 15.6472 4.92462 15.2286 4.66332C14.81 4.42211 14.3316 4.24121 13.7934 4.1608C13.2553 4.0603 12.6772 4.0201 12.0992 4.0201H8.11262V11.0352H12.0992C12.6772 11.0352 13.2553 10.9749 13.7934 10.8945C14.3316 10.8141 14.81 10.6533 15.2286 10.392Z" fill="#8FA63C" style="fill:#8FA63C;fill:color(display-p3 0.5608 0.6510 0.2353);fill-opacity:1;"/>
<path fill-rule="evenodd" clip-rule="evenodd" d="M42.656 23.4774L33.9454 0H28.6832L19.8929 23.4774H25.0355L26.8693 18.2513H35.5799L37.334 23.4774H42.656ZM31.2944 5.78894L34.2245 14.392H28.2048L31.2346 5.78894H31.2944Z" fill="#8FA63C" style="fill:#8FA63C;fill:color(display-p3 0.5608 0.6510 0.2353);fill-opacity:1;"/>
<path fill-rule="evenodd" clip-rule="evenodd" d="M61.2333 2.35176C61.8712 3.05528 62.3296 3.8392 62.6286 4.74372C62.9077 5.62814 63.0671 6.57286 63.0472 7.53769C63.0472 8.48241 62.9077 9.40703 62.6087 10.3116C62.3296 11.2161 61.8512 12.0201 61.2134 12.7236C60.6898 13.301 60.032 13.7837 59.251 14.1715L63.5056 23.4774H58.1836L56.4295 19.2161L54.4998 15.0553H49.6325V23.4975H44.6692V0H55.0143C56.4694 0 57.7052 0.221106 58.7417 0.663317C59.7583 1.08543 60.5955 1.64824 61.2333 2.35176ZM56.7285 10.392C57.1471 10.1508 57.466 9.78895 57.7252 9.32663C57.9843 8.88442 58.1039 8.28141 58.1039 7.53769C58.1039 6.79397 57.9843 6.19095 57.7252 5.72864C57.466 5.26633 57.1471 4.92462 56.7285 4.66332C56.3099 4.42211 55.8315 4.24121 55.2934 4.1608C54.7552 4.0603 54.1771 4.0201 53.5991 4.0201H49.6125V11.0352H53.5991C54.1771 11.0352 54.7552 10.9749 55.2934 10.8945C55.8315 10.8141 56.3099 10.6533 56.7285 10.392ZM54.643 15.0553L55.094 16.1005L54.6526 15.0553H54.643Z" fill="#8FA63C" style="fill:#8FA63C;fill:color(display-p3 0.5608 0.6510 0.2353);fill-opacity:1;"/>
<path d="M72.0169 0.0402035H66.8942V4.88442H72.0169V0.0402035Z" fill="#8FA63C" style="fill:#8FA63C;fill:color(display-p3 0.5608 0.6510 0.2353);fill-opacity:1;"/>
<path d="M72.0169 7.19598H66.8942V23.4774H72.0169V7.19598Z" fill="#8FA63C" style="fill:#8FA63C;fill:color(display-p3 0.5608 0.6510 0.2353);fill-opacity:1;"/>
<path fill-rule="evenodd" clip-rule="evenodd" d="M87.4648 0C88.581 0 89.5776 0.100503 90.4945 0.301508C91.4114 0.502513 92.1888 0.824121 92.8466 1.26633C93.5044 1.70854 94.0027 2.31156 94.3615 3.05528C94.7203 3.799 94.8997 4.72362 94.8997 5.80905C94.8997 6.99497 94.6405 7.9799 94.1024 8.76382C93.5642 9.54774 92.7868 10.191 91.7304 10.6935C93.1655 11.1156 94.2419 11.8392 94.9395 12.8844C95.6372 13.9296 95.996 15.1759 95.996 16.6432C95.996 17.8291 95.7767 18.8543 95.3183 19.7186C94.8598 20.5829 94.2419 21.2864 93.4844 21.8492C92.7071 22.392 91.83 22.794 90.8533 23.0754C89.8567 23.3367 88.8401 23.4774 87.8036 23.4774H76.5217V0H87.4648ZM87.106 19.4573C87.6043 19.4573 88.0827 19.4171 88.5411 19.3166C88.9996 19.2161 89.3982 19.0553 89.757 18.8141C90.0959 18.593 90.3749 18.2714 90.5942 17.8693C90.7935 17.4673 90.9131 16.9648 90.9131 16.3618C90.9131 15.1558 90.5743 14.2915 89.8966 13.7889C89.2188 13.2663 88.3418 13.0251 87.2256 13.0251H81.6444V19.4774H87.106V19.4573ZM86.807 9.50754C87.7239 9.50754 88.4614 9.28643 89.0594 8.84422C89.6374 8.40201 89.9364 7.69849 89.9364 6.71357C89.9364 6.17085 89.8368 5.70854 89.6374 5.36683C89.4381 5.02513 89.179 4.74372 88.8601 4.54271C88.5411 4.34171 88.1624 4.201 87.7438 4.1407C87.3252 4.0603 86.8867 4.0201 86.4283 4.0201H81.6444V9.50754H86.807Z" fill="#8FA63C" style="fill:#8FA63C;fill:color(display-p3 0.5608 0.6510 0.2353);fill-opacity:1;"/>
<path d="M108.554 24C111.663 24 114.095 23.2362 115.849 21.6884C117.603 20.1407 118.48 17.7688 118.5 14.593V0H113.377V14.593C113.377 16.3417 113.038 17.6281 112.341 18.4523C111.643 19.2764 110.387 19.6784 108.554 19.6784C107.517 19.6784 106.68 19.5377 106.062 19.2362C105.444 18.9548 104.946 18.5528 104.607 18.0905C104.268 17.608 104.029 17.0854 103.929 16.4623C103.83 15.8593 103.77 15.2362 103.77 14.593V0H98.647V14.6131C98.647 17.809 99.5041 20.1809 101.238 21.7085C102.972 23.2362 105.404 24 108.554 24Z" fill="#8FA63C" style="fill:#8FA63C;fill:color(display-p3 0.5608 0.6510 0.2353);fill-opacity:1;"/>
</svg>
