<svg width="24" height="24" viewBox="0 0 24 24" fill="none" xmlns="http://www.w3.org/2000/svg">
<path d="M12 3C14.2091 3 16 4.79086 16 7C16 9.20914 14.2091 11 12 11C9.79086 11 8 9.20914 8 7C8 4.79086 9.79086 3 12 3Z"/>
<path d="M12 13C14.0885 13 15.7887 13.7142 17.0855 14.9409C18.3632 16.1496 19.1953 17.8028 19.6811 19.6161C19.8684 20.3156 19.3405 21 18.619 21H5.38104C4.65956 21 4.13158 20.3156 4.31896 19.6161C4.80467 17.8028 5.63682 16.1496 6.91451 14.9409C8.21129 13.7142 9.91156 13 12 13Z"/>
</svg>
