<svg width="24" height="24" viewBox="0 0 24 24" fill="none" xmlns="http://www.w3.org/2000/svg">
<path d="M12 5C10.8954 5 9.99999 5.89543 9.99999 7C9.99999 8.10457 10.8954 9 12 9C13.1046 9 14 8.10457 14 7C14 5.89543 13.1046 5 12 5ZM7.99999 7C7.99999 4.79086 9.79085 3 12 3C14.2091 3 16 4.79086 16 7C16 9.20914 14.2091 11 12 11C9.79085 11 7.99999 9.20914 7.99999 7Z"/>
<path d="M8.25473 16.4265C7.31675 17.3295 6.63376 18.6435 6.22046 20.2493L5.97121 21.2177L4.03433 20.7192L4.28359 19.7507C4.75838 17.906 5.58553 16.22 6.86759 14.9857C8.16945 13.7323 9.88524 13 12 13C14.1147 13 15.8305 13.7323 17.1324 14.9857C18.4145 16.22 19.2416 17.906 19.7164 19.7507L19.9657 20.7192L18.0288 21.2177L17.7795 20.2493C17.3662 18.6435 16.6832 17.3295 15.7453 16.4265C14.8271 15.5425 13.6129 15 12 15C10.3871 15 9.17292 15.5425 8.25473 16.4265Z"/>
</svg>
