<svg width="24" height="24" viewBox="0 0 24 24" fill="none" xmlns="http://www.w3.org/2000/svg">
<path d="M14 6C14 3.79086 15.7909 2 18 2C20.2091 2 22 3.79086 22 6C22 8.20914 20.2091 10 18 10C15.7909 10 14 8.20914 14 6Z"/>
<path d="M6 14C8.20914 14 10 15.7909 10 18C10 20.2091 8.20914 22 6 22C3.79086 22 2 20.2091 2 18C2 15.7909 3.79086 14 6 14ZM6 16C4.89543 16 4 16.8954 4 18C4 19.1046 4.89543 20 6 20C7.10457 20 8 19.1046 8 18C8 16.8954 7.10457 16 6 16Z"/>
<path d="M4.29297 10.2929L8.58587 6.00001H6V4.00001H10.75L10.76 3.99997C10.802 3.99977 10.9143 3.99924 11.0204 4.0135C11.1653 4.03298 11.4354 4.09444 11.6705 4.32951C11.9056 4.56459 11.967 4.83467 11.9865 4.9796C12.0008 5.08568 12.0002 5.19795 12 5.23999L12 5.25001V10H10V7.4143L5.70718 11.7071L4.29297 10.2929Z"/>
<path d="M19.7072 13.7071L15.4143 18H18.0001V20H13.2501L13.2401 20C13.198 20.0002 13.0858 20.0008 12.9797 19.9865C12.8348 19.967 12.5647 19.9056 12.3296 19.6705C12.0945 19.4354 12.0331 19.1653 12.0136 19.0204C11.9993 18.9143 11.9999 18.802 12.0001 18.76L12.0001 18.75V14H14.0001V16.5858L18.293 12.2929L19.7072 13.7071Z"/>
</svg>
