<svg width="24" height="24" viewBox="0 0 24 24" fill="none" xmlns="http://www.w3.org/2000/svg">
<path d="M18 2C20.2091 2 22 3.79086 22 6C22 8.20914 20.2091 10 18 10C15.7909 10 14 8.20914 14 6C14 3.79086 15.7909 2 18 2ZM16 6C16 7.10457 16.8954 8 18 8C19.1046 8 20 7.10457 20 6C20 4.89543 19.1046 4 18 4C16.8954 4 16 4.89543 16 6Z"/>
<path d="M6 14C8.20914 14 10 15.7909 10 18C10 20.2091 8.20914 22 6 22C3.79086 22 2 20.2091 2 18C2 15.7909 3.79086 14 6 14ZM4 18C4 19.1046 4.89543 20 6 20C7.10457 20 8 19.1046 8 18C8 16.8954 7.10457 16 6 16C4.89543 16 4 16.8954 4 18Z"/>
<path d="M8.82739 5.89994H6V4.09994H10.75L10.7606 4.09991C10.8037 4.09973 10.9086 4.0993 11.0071 4.11254C11.1409 4.13053 11.3864 4.18675 11.5998 4.40015C11.8132 4.61355 11.8694 4.85902 11.8874 4.99285C11.9006 5.09135 11.9002 5.19625 11.9 5.23931L11.9 5.24994V9.99994H10.1V7.17291L5.63656 11.6363L4.36377 10.3636L8.82739 5.89994Z"/>
<path d="M15.173 18.0999H18.0002V19.8999H13.2502L13.2396 19.9C13.1965 19.9001 13.0916 19.9006 12.9931 19.8873C12.8593 19.8693 12.6138 19.8131 12.4004 19.5997C12.187 19.3863 12.1308 19.1409 12.1128 19.007C12.0995 18.9085 12.1 18.8036 12.1001 18.7606L12.1002 18.7499V13.9999H13.9002V16.8271L18.3638 12.3636L19.6366 13.6363L15.173 18.0999Z"/>
</svg>
