<svg width="24" height="24" viewBox="0 0 24 24" fill="none" xmlns="http://www.w3.org/2000/svg">
<path d="M19.47 11.83C19.5097 11.9399 19.5097 12.0601 19.47 12.17C18.8819 13.6912 17.861 15.0067 16.5334 15.954C15.2058 16.9012 13.6297 17.4387 12 17.5C10.3703 17.4387 8.7942 16.9012 7.4666 15.954C6.13901 15.0067 5.11808 13.6912 4.53 12.17C4.49028 12.0601 4.49028 11.9399 4.53 11.83C5.11808 10.3088 6.13901 8.99331 7.4666 8.04604C8.7942 7.09878 10.3703 6.56129 12 6.5C13.6297 6.56129 15.2058 7.09878 16.5334 8.04604C17.861 8.99331 18.8819 10.3088 19.47 11.83ZM12 16.5C14.65 16.5 17.45 14.535 18.465 12C17.45 9.465 14.65 7.5 12 7.5C9.35 7.5 6.55 9.465 5.535 12C6.55 14.535 9.35 16.5 12 16.5Z"/>
<path d="M12 9C12.7957 9 13.5587 9.31607 14.1213 9.87868C14.6839 10.4413 15 11.2044 15 12C15 12.5933 14.8241 13.1734 14.4944 13.6667C14.1648 14.1601 13.6962 14.5446 13.1481 14.7716C12.5999 14.9987 11.9967 15.0581 11.4147 14.9424C10.8328 14.8266 10.2982 14.5409 9.87868 14.1213C9.45912 13.7018 9.1734 13.1672 9.05765 12.5853C8.94189 12.0033 9.0013 11.4001 9.22836 10.8519C9.45543 10.3038 9.83994 9.83524 10.3333 9.50559C10.8266 9.17595 11.4067 9 12 9ZM12 14C12.5304 14 13.0391 13.7893 13.4142 13.4142C13.7893 13.0391 14 12.5304 14 12C14 11.6044 13.8827 11.2178 13.6629 10.8889C13.4432 10.56 13.1308 10.3036 12.7654 10.1522C12.3999 10.0009 11.9978 9.96126 11.6098 10.0384C11.2219 10.1156 10.8655 10.3061 10.5858 10.5858C10.3061 10.8655 10.1156 11.2219 10.0384 11.6098C9.96126 11.9978 10.0009 12.3999 10.1522 12.7654C10.3036 13.1308 10.56 13.4432 10.8889 13.6629C11.2178 13.8827 11.6044 14 12 14Z"/>
</svg>
